<?xml version="1.0" encoding="UTF-8" standalone="no"?>
<!-- Created with Inkscape (http://www.inkscape.org/) -->

<svg
   xmlns:dc="http://purl.org/dc/elements/1.1/"
   xmlns:cc="http://creativecommons.org/ns#"
   xmlns:rdf="http://www.w3.org/1999/02/22-rdf-syntax-ns#"
   xmlns:svg="http://www.w3.org/2000/svg"
   xmlns="http://www.w3.org/2000/svg"
   xmlns:sodipodi="http://sodipodi.sourceforge.net/DTD/sodipodi-0.dtd"
   xmlns:inkscape="http://www.inkscape.org/namespaces/inkscape"
   width="69.498817mm"
   height="62.431828mm"
   viewBox="0 0 69.498817 62.431827"
   version="1.1"
   id="svg2225"
   sodipodi:docname="sqla-filters-json.svg"
   inkscape:version="0.92.2 2405546, 2018-03-11">
  <defs
     id="defs2219" />
  <sodipodi:namedview
     id="base"
     pagecolor="#ffffff"
     bordercolor="#666666"
     borderopacity="1.0"
     inkscape:pageopacity="0.0"
     inkscape:pageshadow="2"
     inkscape:zoom="1.979899"
     inkscape:cx="146.7254"
     inkscape:cy="51.866807"
     inkscape:document-units="mm"
     inkscape:current-layer="layer1"
     showgrid="false"
     inkscape:window-width="1920"
     inkscape:window-height="1016"
     inkscape:window-x="1920"
     inkscape:window-y="27"
     inkscape:window-maximized="1"
     fit-margin-top="1"
     fit-margin-left="1"
     fit-margin-right="1"
     fit-margin-bottom="1" />
  <metadata
     id="metadata2222">
    <rdf:RDF>
      <cc:Work
         rdf:about="">
        <dc:format>image/svg+xml</dc:format>
        <dc:type
           rdf:resource="http://purl.org/dc/dcmitype/StillImage" />
        <dc:title></dc:title>
      </cc:Work>
    </rdf:RDF>
  </metadata>
  <g
     inkscape:label="Layer 1"
     inkscape:groupmode="layer"
     id="layer1"
     transform="translate(-72.729463,-163.53528)">
    <path
       style="display:inline;fill:#000000;fill-opacity:1;stroke:none;stroke-width:3.00442004;stroke-linejoin:round;stroke-miterlimit:4;stroke-dasharray:none;stroke-opacity:1"
       d="m 110.23877,164.53528 a 9.4661188,15.881298 0 0 0 -9.46486,15.88132 h 0.47333 a 8.9928123,15.087233 0 0 1 8.99163,-15.08722 8.9928123,15.087233 0 0 1 8.99397,15.08311 h 8e-5 a 9.4661188,15.881298 0 0 0 3.3983,12.15244 9.4661188,15.881298 0 0 0 7.73337,3.4441 l -0.0832,-0.78179 a 8.9928123,15.087233 0 0 1 -7.34673,-3.27176 8.9928123,15.087233 0 0 1 -3.22836,-11.54495 h -1.6e-4 a 9.4661188,15.881298 0 0 0 -9.46732,-15.87525 z"
       id="path2204"
       inkscape:connector-curvature="0" />
    <path
       style="display:inline;fill:#d71f00;fill-opacity:1;stroke:#000000;stroke-width:0.30000001;stroke-linecap:butt;stroke-linejoin:miter;stroke-miterlimit:4;stroke-dasharray:none;stroke-opacity:1"
       d="M 101.00192,224.73982 V 180.22367 L 73.972143,213.18046 Z"
       id="path2206"
       inkscape:connector-curvature="0" />
    <path
       style="display:inline;fill:#d71f00;fill-opacity:1;stroke:#000000;stroke-width:0.30000001;stroke-linecap:butt;stroke-linejoin:miter;stroke-miterlimit:4;stroke-dasharray:none;stroke-opacity:1"
       d="m 128.03169,213.18046 -27.02977,11.55936 v -44.51615 z"
       id="path2208"
       inkscape:connector-curvature="0" />
    <path
       inkscape:connector-curvature="0"
       id="path2210"
       d="m 130.38189,190.63442 h 10.69639 v 9.94044 h -10.69639 z"
       style="fill:#d71f00;fill-opacity:1;stroke:#000000;stroke-width:0.30000001;stroke-linejoin:round;stroke-miterlimit:4;stroke-dasharray:none;stroke-opacity:1" />
    <flowRoot
       xml:space="preserve"
       id="flowRoot886"
       style="font-style:normal;font-weight:normal;font-size:40px;line-height:1.25;font-family:sans-serif;letter-spacing:0px;word-spacing:0px;fill:#000000;fill-opacity:1;stroke:none"
       transform="matrix(0.26458333,0,0,0.26458333,72.595828,173.55789)"><flowRegion
         id="flowRegion888"><rect
           id="rect890"
           width="93.944183"
           height="81.822357"
           x="-118.69292"
           y="183.93996" /></flowRegion><flowPara
         id="flowPara892"></flowPara></flowRoot>    <g
       aria-label="JSON"
       transform="matrix(0.26458333,0,0,0.26458333,123.77795,139.34739)"
       style="font-style:normal;font-weight:normal;font-size:40px;line-height:1.25;font-family:sans-serif;letter-spacing:0px;word-spacing:0px;fill:#ffffff;fill-opacity:1;stroke:none"
       id="flowRoot894">
      <path
         d="m -147.79754,281.88497 q -3.36,0 -6,-1.44 -2.592,-1.488 -4.08,-4.08 -1.44,-2.64 -1.44,-6 0,-1.104 0.72,-1.776 0.72,-0.72 1.776,-0.72 1.104,0 1.776,0.72 0.72,0.672 0.72,1.776 0,3.072 1.824,5.04 1.824,1.968 4.704,1.968 2.88,0 4.704,-1.968 1.872,-1.968 1.872,-5.04 v -23.952 q 0,-1.104 0.672,-1.776 0.72,-0.72 1.776,-0.72 1.104,0 1.824,0.72 0.72,0.672 0.72,1.776 v 23.952 q 0,3.36 -1.488,6 -1.488,2.592 -4.128,4.08 -2.592,1.44 -5.952,1.44 z"
         style="font-style:normal;font-variant:normal;font-weight:bold;font-stretch:normal;font-size:48px;font-family:Comfortaa;-inkscape-font-specification:'Comfortaa Bold';text-align:center;text-anchor:middle;fill:#ffffff"
         id="path2293" />
      <path
         d="m -114.67979,281.88497 q -4.656,0 -8.496,-2.112 -3.792,-2.112 -5.232,-5.52 -0.24,-0.576 -0.24,-0.96 0,-0.72 0.528,-1.248 0.528,-0.576 1.44,-0.768 0.144,-0.048 0.48,-0.048 0.768,0 1.44,0.48 0.72,0.432 1.056,1.2 0.864,1.872 3.408,3.168 2.544,1.296 5.616,1.296 3.6,0 6.096,-1.632 2.496,-1.68 2.496,-4.56 0,-2.736 -2.112,-4.656 -2.112,-1.968 -6.432,-2.4 -5.952,-0.576 -9.36,-3.456 -3.408,-2.928 -3.408,-7.296 0,-3.072 1.728,-5.28 1.776,-2.256 4.8,-3.408 3.072,-1.2 6.864,-1.2 4.128,0 6.96,1.68 2.832,1.68 4.8,4.8 0.576,0.912 0.576,1.728 0,1.056 -0.96,1.728 -0.528,0.336 -1.248,0.336 -0.72,0 -1.344,-0.336 -0.624,-0.384 -0.96,-1.008 -1.296,-2.16 -3.264,-3.264 -1.92,-1.152 -4.896,-1.152 -3.648,0 -5.904,1.44 -2.256,1.392 -2.256,4.08 0,2.496 2.016,4.176 2.016,1.68 7.2,2.208 5.76,0.576 8.928,3.504 3.168,2.88 3.168,7.632 0,3.456 -1.872,5.952 -1.872,2.448 -4.992,3.696 -3.072,1.2 -6.624,1.2 z"
         style="font-style:normal;font-variant:normal;font-weight:bold;font-stretch:normal;font-size:48px;font-family:Comfortaa;-inkscape-font-specification:'Comfortaa Bold';text-align:center;text-anchor:middle;fill:#ffffff"
         id="path2295" />
      <path
         d="m -76.255789,281.88497 q -5.568,0 -9.936,-2.448 -4.32,-2.448 -6.72,-6.816 -2.4,-4.416 -2.4,-9.984 0,-5.568 2.4,-9.936 2.4,-4.368 6.72,-6.816 4.368,-2.448 9.936,-2.448 5.52,0 9.84,2.448 4.368,2.448 6.768,6.816 2.448,4.368 2.448,9.936 0,5.568 -2.448,9.984 -2.4,4.368 -6.72,6.816 -4.32,2.448 -9.888,2.448 z m 0,-4.512 q 4.08,0 7.344,-1.92 3.264,-1.968 5.088,-5.328 1.824,-3.36 1.824,-7.488 0,-4.128 -1.824,-7.488 -1.824,-3.36 -5.088,-5.28 -3.216,-1.92 -7.344,-1.92 -4.128,0 -7.392,1.92 -3.216,1.92 -5.04,5.28 -1.824,3.36 -1.824,7.488 0,4.128 1.824,7.488 1.824,3.36 5.088,5.328 3.264,1.92 7.344,1.92 z"
         style="font-style:normal;font-variant:normal;font-weight:bold;font-stretch:normal;font-size:48px;font-family:Comfortaa;-inkscape-font-specification:'Comfortaa Bold';text-align:center;text-anchor:middle;fill:#ffffff"
         id="path2297" />
      <path
         d="m -46.885789,281.40497 q -1.056,0 -1.776,-0.672 -0.672,-0.72 -0.672,-1.824 v -32.496 q 0,-1.104 0.672,-1.776 0.72,-0.72 1.776,-0.72 0.528,0 1.056,0.288 0.528,0.24 0.864,0.624 l 20.928,27.84 v -26.256 q 0,-1.104 0.72,-1.776 0.72,-0.72 1.776,-0.72 1.056,0 1.728,0.72 0.72,0.672 0.72,1.776 v 32.496 q 0,1.104 -0.72,1.824 -0.672,0.672 -1.728,0.672 -0.528,0 -1.104,-0.192 -0.528,-0.24 -0.816,-0.672 l -20.928,-27.84 v 26.208 q 0,1.056 -0.72,1.776 -0.672,0.72 -1.776,0.72 z"
         style="font-style:normal;font-variant:normal;font-weight:bold;font-stretch:normal;font-size:48px;font-family:Comfortaa;-inkscape-font-specification:'Comfortaa Bold';text-align:center;text-anchor:middle;fill:#ffffff"
         id="path2299" />
    </g>
  </g>
</svg>
